<svg viewBox="0 0 62 20" fill="none" xmlns="http://www.w3.org/2000/svg">
  <rect x="0.5" y="0.5" width="19" height="19" rx="2.5" fill="#FF9D72" stroke="black" />
  <rect x="42.5" y="0.5" width="19" height="19" rx="2.5" fill="#F4F4F4" stroke="black" />
  <rect x="21.5" y="0.5" width="19" height="19" rx="2.5" fill="#FFD66B" stroke="black" />
  <path
    d="M54.9402 11.7269H51.0532L50.2226 18H47L49.1262 2H57L56.6346 4.7489H51.9834L51.3854 9.11894H55.2724L54.9402 11.7269Z"
    fill="black" />
  <path
    d="M33.9402 11.7269H30.0532L29.2226 18H26L28.1262 2H36L35.6346 4.7489H30.9834L30.3854 9.11894H34.2724L33.9402 11.7269Z"
    fill="black" />
  <path
    d="M8.96721 18H5.55738L6.30328 12.7137L6.01913 11.7269C5.52186 10.1057 5.01275 8.49633 4.4918 6.89868C3.99454 5.30103 3.49727 3.66813 3 2H6.62295C6.81239 2.75184 6.98998 3.51542 7.15574 4.29075C7.34517 5.06608 7.52277 5.80617 7.68852 6.51101C7.85428 7.19236 7.99636 7.81498 8.11475 8.37885C8.23315 8.94273 8.33971 9.38913 8.43443 9.71806C8.43443 9.71806 8.65938 9.27166 9.10929 8.37885C9.39344 7.81498 9.71311 7.19236 10.0683 6.51101C10.4235 5.80617 10.8024 5.06608 11.2049 4.29075L12.3415 2H16C15.0291 3.66813 14.0701 5.30103 13.123 6.89868C12.1758 8.49633 11.2286 10.1057 10.2814 11.7269L9.71311 12.7137L8.96721 18Z"
    fill="black" />
</svg>